<svg id="visual" viewBox="0 0 960 300" width="960" height="300" xmlns="http://www.w3.org/2000/svg" xmlns:xlink="http://www.w3.org/1999/xlink" version="1.1"><rect x="0" y="0" width="960" height="300" fill="#5C7285"></rect><path d="M0 151L22.8 161.3C45.7 171.7 91.3 192.3 137 202.3C182.7 212.3 228.3 211.7 274 202C319.7 192.3 365.3 173.7 411.2 171.5C457 169.3 503 183.7 548.8 199C594.7 214.3 640.3 230.7 686 232.7C731.7 234.7 777.3 222.3 823 207C868.7 191.7 914.3 173.3 937.2 164.2L960 155L960 0L937.2 0C914.3 0 868.7 0 823 0C777.3 0 731.7 0 686 0C640.3 0 594.7 0 548.8 0C503 0 457 0 411.2 0C365.3 0 319.7 0 274 0C228.3 0 182.7 0 137 0C91.3 0 45.7 0 22.8 0L0 0Z" fill="#95a6c7"></path><path d="M0 172L22.8 165.7C45.7 159.3 91.3 146.7 137 151C182.7 155.3 228.3 176.7 274 185.8C319.7 195 365.3 192 411.2 186.3C457 180.7 503 172.3 548.8 169.2C594.7 166 640.3 168 686 166.2C731.7 164.3 777.3 158.7 823 151.5C868.7 144.3 914.3 135.7 937.2 131.3L960 127L960 0L937.2 0C914.3 0 868.7 0 823 0C777.3 0 731.7 0 686 0C640.3 0 594.7 0 548.8 0C503 0 457 0 411.2 0C365.3 0 319.7 0 274 0C228.3 0 182.7 0 137 0C91.3 0 45.7 0 22.8 0L0 0Z" fill="#9d90cd"></path><path d="M0 126L22.8 122.7C45.7 119.3 91.3 112.7 137 118C182.7 123.3 228.3 140.7 274 140C319.7 139.3 365.3 120.7 411.2 110.8C457 101 503 100 548.8 102.8C594.7 105.7 640.3 112.3 686 119.8C731.7 127.3 777.3 135.7 823 142.7C868.7 149.7 914.3 155.3 937.2 158.2L960 161L960 0L937.2 0C914.3 0 868.7 0 823 0C777.3 0 731.7 0 686 0C640.3 0 594.7 0 548.8 0C503 0 457 0 411.2 0C365.3 0 319.7 0 274 0C228.3 0 182.7 0 137 0C91.3 0 45.7 0 22.8 0L0 0Z" fill="#be70bb"></path><path d="M0 93L22.8 90.8C45.7 88.7 91.3 84.3 137 84.3C182.7 84.3 228.3 88.7 274 87C319.7 85.3 365.3 77.7 411.2 77.5C457 77.3 503 84.7 548.8 91C594.7 97.3 640.3 102.7 686 104.5C731.7 106.3 777.3 104.7 823 96.7C868.7 88.7 914.3 74.3 937.2 67.2L960 60L960 0L937.2 0C914.3 0 868.7 0 823 0C777.3 0 731.7 0 686 0C640.3 0 594.7 0 548.8 0C503 0 457 0 411.2 0C365.3 0 319.7 0 274 0C228.3 0 182.7 0 137 0C91.3 0 45.7 0 22.8 0L0 0Z" fill="#dd438c"></path><path d="M0 37L22.8 36.3C45.7 35.7 91.3 34.3 137 32.3C182.7 30.3 228.3 27.7 274 29.5C319.7 31.3 365.3 37.7 411.2 43C457 48.3 503 52.7 548.8 50C594.7 47.3 640.3 37.7 686 39.5C731.7 41.3 777.3 54.7 823 55.8C868.7 57 914.3 46 937.2 40.5L960 35L960 0L937.2 0C914.3 0 868.7 0 823 0C777.3 0 731.7 0 686 0C640.3 0 594.7 0 548.8 0C503 0 457 0 411.2 0C365.3 0 319.7 0 274 0C228.3 0 182.7 0 137 0C91.3 0 45.7 0 22.8 0L0 0Z" fill="#e50046"></path></svg>